<svg xmlns="http://www.w3.org/2000/svg" viewBox="0 0 600 650"><defs><linearGradient id="a" x2="1" y2="1"><stop stop-color="#9eac81"/><stop offset="1" stop-color="#657553"/></linearGradient><filter id="s"><feDropShadow dx="10" dy="16" stdDeviation="12" flood-opacity=".2"/></filter></defs><rect width="600" height="650" fill="#cbd1bc"/><g fill="url(#a)" stroke="#34402d" stroke-width="10" stroke-linejoin="round" filter="url(#s)"><path d="M132 370q70-95 180-67 81 20 155-26 45-28 72 22-41 3-73 44-63 81-176 44-89-29-158 32-51 45-91 16 45-23 91-65Z"/><path d="m275 320-78-99-28 16 57 116M334 361l78 88 31-17-62-107M359 310l57-99 33 14-43 110M264 379l-59 98-34-17 48-105"/></g><circle cx="479" cy="299" r="8" fill="#f4f1e9"/><path d="M165 348q90-35 190-10M196 382q90-28 170-8" stroke="#c7d2a7" stroke-width="5" fill="none"/></svg>
